<?xml version="1.0" standalone="no"?>
<!DOCTYPE svg PUBLIC "-//W3C//DTD SVG 20010904//EN"
 "http://www.w3.org/TR/2001/REC-SVG-20010904/DTD/svg10.dtd">
<svg version="1.0" xmlns="http://www.w3.org/2000/svg"
 width="884.000000pt" height="884.000000pt" viewBox="0 0 884.000000 884.000000"
 preserveAspectRatio="xMidYMid meet">
<metadata>
Created by potrace 1.14, written by Peter Selinger 2001-2017
</metadata>
<g transform="translate(0.000000,884.000000) scale(0.100000,-0.100000)"
fill="#000000" stroke="none">
<path d="M5870 8807 c-30 -15 -64 -33 -75 -40 -11 -7 -49 -28 -85 -48 -36 -20
-87 -49 -115 -64 -27 -16 -88 -49 -135 -73 -47 -25 -86 -49 -88 -54 -2 -4 -8
-8 -13 -8 -11 0 -341 -181 -349 -191 -3 -3 -16 -10 -30 -14 -14 -4 -27 -11
-30 -14 -3 -4 -50 -31 -105 -61 -122 -65 -160 -86 -188 -105 -35 -23 -190
-106 -209 -112 -10 -3 -18 -9 -18 -14 0 -5 -4 -9 -10 -9 -5 0 -47 -21 -92 -46
-46 -26 -115 -64 -154 -85 l-71 -38 -7 45 c-7 56 -47 176 -61 186 -5 4 -7 8
-3 8 12 0 -55 121 -101 183 -169 230 -428 364 -726 377 -126 6 -488 4 -581 -3
-216 -16 -365 -49 -478 -106 -250 -128 -444 -401 -482 -676 -3 -22 -7 -51 -10
-65 -8 -54 -4 -984 5 -989 7 -5 242 -6 272 -2 4 1 7 220 7 489 1 268 4 498 7
512 3 14 7 37 9 51 8 53 69 180 117 243 51 68 151 155 206 181 107 49 128 56
208 71 57 10 687 11 765 1 187 -23 349 -117 460 -266 22 -30 40 -60 40 -67 0
-6 6 -17 14 -23 8 -7 18 -27 22 -44 3 -18 10 -36 14 -42 11 -14 30 -111 33
-168 l2 -48 -75 -40 c-41 -22 -93 -51 -115 -63 -22 -13 -69 -39 -105 -58 -78
-42 -130 -71 -275 -153 -130 -73 -187 -105 -275 -153 -119 -64 -174 -104 -241
-171 -74 -75 -117 -154 -146 -271 -18 -73 -19 -172 -18 -3035 1 -3053 1 -3036
38 -3082 5 -7 7 -13 3 -13 -10 0 40 -106 72 -152 50 -73 159 -178 237 -229
124 -81 295 -164 380 -183 6 -2 30 -9 55 -16 25 -8 47 -14 50 -15 27 -7 71
-15 95 -19 17 -3 64 -10 106 -16 141 -22 430 -5 554 33 6 2 21 7 35 11 14 4
34 11 45 16 11 5 47 20 80 35 33 14 67 30 75 35 8 5 35 20 60 33 62 32 151 82
230 127 36 21 91 51 123 69 31 17 83 45 115 62 31 18 87 49 124 70 36 22 71
39 77 39 6 0 11 5 11 10 0 6 5 10 11 10 6 0 38 16 72 36 84 50 110 64 197 112
41 22 104 56 140 76 36 20 77 42 93 47 15 6 27 15 27 20 0 5 4 9 10 9 5 0 65
31 134 70 69 38 142 79 163 90 21 12 45 25 53 31 20 12 229 127 327 180 43 23
83 46 90 51 7 5 34 22 62 36 217 116 379 207 395 221 10 9 19 14 20 12 0 -3
33 13 71 36 39 22 97 55 130 74 33 18 78 43 100 56 22 12 51 28 65 34 43 18
90 59 115 100 l25 39 0 3045 0 3045 -33 43 c-46 62 -71 78 -126 81 -53 3 -68
-3 -196 -74 -44 -25 -97 -54 -117 -65 -21 -11 -66 -35 -100 -54 -35 -18 -74
-41 -88 -51 -14 -9 -72 -42 -130 -73 -58 -31 -157 -85 -220 -121 -150 -85
-169 -95 -178 -97 -4 -2 -33 -18 -64 -36 -31 -18 -61 -33 -66 -33 -6 0 -12 -4
-14 -8 -1 -5 -43 -30 -93 -57 -111 -60 -165 -90 -227 -126 -27 -16 -50 -29
-52 -29 -2 0 -41 -22 -87 -48 -46 -27 -99 -55 -116 -63 -18 -7 -33 -17 -33
-21 0 -5 -5 -8 -11 -8 -6 0 -41 -17 -77 -39 -73 -42 -137 -78 -222 -123 -30
-17 -59 -33 -65 -38 -5 -4 -44 -25 -85 -47 -74 -40 -189 -103 -285 -158 -61
-35 -138 -78 -185 -103 -40 -21 -128 -70 -180 -99 -135 -76 -176 -98 -180 -99
-3 0 -16 -5 -30 -11 -33 -14 -121 -39 -193 -56 -60 -15 -280 -16 -367 -2 -52
8 -277 64 -300 75 -8 4 -40 19 -70 33 -64 31 -129 68 -183 104 -46 32 -42 38
62 95 42 22 101 55 131 71 30 17 72 41 92 54 21 12 40 23 43 23 3 0 22 11 43
23 20 13 76 45 124 70 93 50 134 73 214 118 l51 29 1 -73 c1 -133 12 -370 17
-375 2 -3 44 18 93 46 49 28 99 57 113 65 13 7 40 23 60 35 l36 22 -14 88 c-7
48 -15 117 -17 154 -2 37 -7 71 -10 76 -3 5 -2 12 1 16 4 4 6 25 4 47 -3 42
10 65 44 80 11 4 47 24 80 43 33 20 80 46 105 58 25 13 47 26 48 31 2 4 7 7
11 7 4 0 54 26 112 58 57 32 135 75 172 95 37 21 84 47 105 59 20 11 75 41
122 66 47 24 97 53 112 63 14 11 29 19 33 19 4 0 19 8 33 18 15 11 52 32 82
48 30 16 106 57 168 91 63 35 115 63 117 63 4 0 171 94 195 110 8 5 34 19 57
30 l43 20 42 -21 c24 -12 45 -24 48 -28 3 -3 41 -24 85 -46 44 -22 82 -43 85
-46 3 -4 25 -17 50 -29 25 -12 48 -27 51 -33 4 -5 14 -7 23 -4 13 5 16 23 16
94 -1 48 0 124 0 169 0 45 -2 88 -6 97 -3 10 -2 17 2 17 5 0 8 19 7 42 -1 24
-4 102 -7 173 -5 134 -14 175 -51 235 -29 45 -52 66 -97 85 -48 20 -72 17
-138 -18z"/>
<path d="M1685 6688 c-44 -10 -105 -47 -105 -65 0 -6 -6 -18 -13 -25 -19 -19
-103 -238 -128 -333 -20 -79 -22 -91 -35 -190 -4 -27 -7 -276 -8 -552 l-1
-503 398 0 398 0 -5 443 c-8 592 -13 697 -43 822 -9 39 -8 36 -21 68 -7 16
-12 30 -12 33 0 3 -21 49 -46 102 -25 53 -52 113 -60 133 -22 54 -54 67 -174
71 -58 2 -123 0 -145 -4z"/>
<path d="M1405 4920 c-1 -3 -2 -151 -1 -329 l1 -325 387 0 c251 -1 389 3 391
9 1 6 3 154 2 330 l0 320 -388 0 c-214 0 -390 -2 -392 -5z"/>
<path d="M1404 4163 c-9 -9 -10 -22 -4 -42 4 -16 6 -32 3 -35 -7 -7 -7 -181 0
-193 2 -4 1 -17 -3 -27 -3 -11 -3 -37 0 -58 4 -21 4 -40 0 -43 -4 -2 -5 -16
-2 -30 l4 -25 389 0 389 0 1 23 c0 26 0 368 -1 412 l0 30 -382 0 c-293 0 -384
-3 -394 -12z"/>
<path d="M1509 3616 c-1 -1 -2 -470 -3 -1043 l-1 -1042 289 2 289 2 -1 1035
c0 569 -1 1038 -1 1041 -1 5 -566 10 -572 5z"/>
<path d="M1610 1450 c-4 -8 -40 -98 -79 -200 -39 -102 -76 -194 -81 -205 -34
-76 -61 -173 -56 -206 6 -39 104 -242 203 -419 67 -121 97 -152 168 -171 47
-13 109 8 147 49 26 27 75 110 117 192 12 25 26 52 32 60 25 40 129 268 133
294 5 25 -33 146 -74 241 -5 11 -36 92 -71 180 -34 88 -66 169 -71 181 -9 20
-17 20 -185 20 -147 0 -176 -3 -183 -16z"/>
</g>
</svg>
