<?xml version="1.0" encoding="UTF-8"?>
<svg id="Layer_2" data-name="Layer 2" xmlns="http://www.w3.org/2000/svg" viewBox="0 0 303.17 442.21">
  <defs>
    <style>
      .cls-1 {
        fill: #f1f2f2;
      }
    </style>
  </defs>
  <g id="Layer_1-2" data-name="Layer 1">
    <g>
      <path class="cls-1" d="M114.12,442.21c-1.92-.44-3.83-.74-5.74-1.03-1.61-.24-3.25-.3-4.81-.79-.85-.26-1.7-.33-2.53-.55-1.14-.3-2.26-.75-3.39-1.09-1.03-.3-2.09-.45-3.11-.82-2.04-.76-4.08-1.53-6.07-2.49-2.93-1.4-5.89-2.75-8.68-4.52-3.33-2.11-6.57-4.47-9.51-7.43-2.56-2.58-4.97-5.34-6.77-8.88-.99-1.95-1.75-4.02-2.41-6.19-.82-2.69-1.29-5.46-1.31-8.28-.08-12.75-.04-25.49-.05-38.24,0-19.2,0-38.4,0-57.59,0-16-.02-32-.02-47.99,0-15.59,.02-31.18,.03-46.77,0-19.4,0-38.8,0-58.2,0-14.07,0-28.14,.01-42.2,0-.56-.04-1.14,.06-1.67,.41-2.1,.68-4.24,1.38-6.26,.9-2.58,1.9-5.06,3.31-7.23,1.56-2.41,3.53-4.21,5.49-6.05,2.19-2.06,4.59-3.46,7.04-4.83,1.92-1.07,3.85-2.11,5.77-3.18,3.76-2.11,7.52-4.24,11.28-6.34,3.02-1.69,6.05-3.35,9.08-5.02,.75-.41,1.48-.87,2.23-1.27,1.46-.78,2.95-1.5,4.4-2.31,1.7-.94,3.37-1.97,5.07-2.91,2.01-1.11,4.04-2.14,6.05-3.24,1.87-1.03,3.72-2.14,5.58-3.18,3.11-1.74,6.23-3.45,9.34-5.17,2.96-1.64,5.91-3.29,8.86-4.92,2.1-1.16,4.22-2.3,6.32-3.46,1.78-.98,3.54-2,5.32-2.96,1.26-.68,2.56-1.23,3.81-1.95,1.95-1.12,3.84-2.38,5.79-3.47,3.59-2,7.21-3.91,10.81-5.88,1.95-1.06,3.89-2.16,5.84-3.24,1.86-1.04,3.73-2.07,5.59-3.1,1.74-.97,3.49-1.94,5.23-2.91,2.48-1.38,4.97-2.75,7.45-4.12,1.39-.77,2.79-1.52,4.18-2.29,2.81-1.56,5.62-3.12,8.44-4.67,2-1.1,4.02-2.15,6-3.29,2.55-1.47,4.98-3.29,7.77-3.95,.69-.16,1.43-.32,2.1-.17,.95,.21,1.89,.63,2.79,1.1,1.99,1.03,3.43,2.86,4.6,5.17,1.47,2.91,1.78,6.19,1.82,9.46,.11,8.33,.05,16.66,.06,24.99,0,1.57,.02,3.15,0,4.72,0,.76-.24,.99-.82,.9-.23-.04-.46-.14-.68-.25-3.06-1.63-6.01-3.57-9.13-5.05-2.43-1.15-4.73-2.71-7.12-4.01-.87-.47-1.71-1.34-2.75-.97-.74,.26-1.47,.63-2.17,1.03-2.77,1.57-5.51,3.2-8.29,4.75-2.97,1.65-5.95,3.25-8.94,4.82-2.96,1.55-5.81,3.4-8.83,4.81-1.98,.92-3.86,2.21-5.79,3.32-2.42,1.39-4.84,2.78-7.28,4.12-1.9,1.05-3.83,2.02-5.73,3.07-3.19,1.76-6.37,3.55-9.56,5.32-2.74,1.52-5.49,3.04-8.23,4.56-2.93,1.63-5.86,3.25-8.79,4.88-4.41,2.45-8.81,4.91-13.22,7.35-2.52,1.4-5.05,2.77-7.57,4.17-1.75,.97-3.5,1.96-5.25,2.93-1.73,.96-3.47,1.88-5.2,2.85-1.96,1.1-3.92,2.17-5.9,3.2-3.66,1.92-7.23,4.11-10.85,6.15-2.5,1.41-5.02,2.76-7.53,4.14-1.77,.97-3.54,1.93-5.31,2.92-.36,.2-.68,.54-1.06,.83,.23,.41,.32,.74,.5,.88,.91,.68,1.81,1.38,2.76,1.95,1.96,1.18,3.98,2.22,5.93,3.43,2.16,1.34,4.47,2.08,6.76,2.9,.64,.23,1.28,.45,1.93,.63,1.07,.29,2.15,.55,3.23,.82,2.32,.57,4.63,1.3,6.98,1.64,3.03,.44,6.08,.56,9.12,.8,3.77,.29,7.52-.16,11.25-.87,2.06-.4,4.1-.99,6.12-1.63,1.81-.57,3.63-1.18,5.37-2.05,2.37-1.19,4.66-2.66,7-3.96,3.33-1.86,6.67-3.68,10.01-5.51,2.82-1.54,5.66-3.05,8.47-4.62,1.78-.99,3.52-2.1,5.3-3.09,3.8-2.11,7.61-4.17,11.41-6.27,3.42-1.89,6.84-3.81,10.26-5.73,3.09-1.73,6.17-3.46,9.26-5.18,1.54-.86,3.1-1.7,4.65-2.54,1.54-.83,3.09-1.62,4.61-2.47,1.66-.93,3.29-1.93,4.94-2.86,3.18-1.78,6.38-3.53,9.57-5.29,2.31-1.28,4.63-2.54,6.94-3.84,1.03-.58,2.02-1.24,3.05-1.8,1.83-1,3.69-1.92,5.52-2.92,1.78-.97,3.53-2,5.3-2.98,1.64-.9,3.3-1.72,4.93-2.65,2.01-1.14,3.99-2.41,6.01-3.53,2.86-1.57,5.76-3.01,8.62-4.59,2.89-1.6,5.73-3.34,8.61-4.95,2.72-1.52,5.47-2.95,8.2-4.45,1.73-.95,3.43-2,5.17-2.94,.94-.51,1.89-1,2.95-.97,.87,.02,1.74-.02,2.61,.03,1.33,.08,2.57,.61,3.6,1.66,.95,.97,1.8,2.1,2.65,3.23,.68,.91,.94,2.03,.89,3.33-.07,1.82,0,3.66,0,5.48,0,30.73,0,61.45,0,92.18,0,26.46,0,52.92,0,79.38,0,33.88,0,67.75,0,101.63,0,7.62,0,15.24-.02,22.85,0,.59,.02,1.33-.23,1.76-1.35,2.31-2.85,4.4-5.06,5.46-2.1,1.01-4.14,2.21-6.19,3.35-3.6,2.01-7.2,4.05-10.79,6.08-.35,.2-.7,.42-1.05,.62-1.5,.84-3,1.66-4.5,2.5-1.16,.65-2.3,1.32-3.46,1.95-2.84,1.54-5.69,3.03-8.52,4.6-4.05,2.25-8.08,4.56-12.13,6.81-2.84,1.58-5.71,3.09-8.55,4.66-1.78,.98-3.54,2.03-5.31,3.03-2.23,1.25-4.48,2.47-6.71,3.73-1.1,.62-2.17,1.33-3.28,1.94-1.47,.8-2.98,1.5-4.44,2.31-2.81,1.56-5.6,3.18-8.41,4.75-1.77,.99-3.55,1.96-5.32,2.94-2.13,1.18-4.26,2.38-6.4,3.54-.86,.47-1.77,.8-2.62,1.29-2.42,1.38-4.82,2.83-7.24,4.2-3.38,1.92-6.77,3.8-10.17,5.68-3.13,1.74-6.27,3.47-9.4,5.2-2.21,1.22-4.43,2.41-6.63,3.64-1.55,.87-3.08,1.8-4.63,2.66-3.07,1.71-6.15,3.4-9.23,5.07-2.7,1.47-5.45,2.78-8.24,3.95-2.26,.95-4.56,1.62-6.86,2.25-2.73,.75-5.49,1.39-8.3,1.53-.26,.01-.52,.08-.79,.12l-14.52,.12Z"/>
      <g>
        <path class="cls-1" d="M138.23,103.29l-14.91,8.54c-.62-5.93-.85-17.15-.87-20.53-.06-11.11,.11-22.22-.04-33.33-.24-18.74-14.74-33.06-33.46-33.15-9.97-.05-19.95-.13-29.92,.05-17.23,.3-31.44,14.7-31.57,31.85-.07,8.47-.02,16.94-.02,25.41l-.03,20.58H12.94c0-13.21,.03-32.44,.04-45.03,.03-23.1,16.23-43.09,39.05-46.05,13.34-1.74,27.06-1.77,40.52-1.01,23.95,1.36,42.37,20.34,43.73,44.29,.65,11.26,.12,22.58,.35,33.87,.08,3.91,1.04,9.15,1.42,11.68,.04,.25,.1,1.38,.18,2.83Z"/>
        <path class="cls-1" d="M.34,191.1H40.01c0-4.19,.08-8.15-.01-12.11-.35-15.69,.11-31.46-1.5-47.02-.8-7.67-5.39-14.99-8.46-22.4-.37-.89-1.89-1.34-2.93-1.92-.28-.16-.74-.02-1.11-.04-15.24-.79-15.58-.91-20.9,12.97-2.44,6.38-4.29,13.33-4.55,20.09-.64,16.58-.21,33.19-.21,50.44Z"/>
        <path class="cls-1" d="M34.61,261.24H5.73v104.37h28.88v-104.37Z"/>
        <path class="cls-1" d="M39.28,403.12c-3.79,7.74-7.56,15.52-11.97,22.91-1.27,2.11-4.67,4.05-7.08,4.05h-.11c-2.42,0-5.81-1.94-7.08-4.05-4.41-7.39-8.19-15.17-11.97-22.91-.82-1.68-1.41-4.09-.82-5.7,3.35-9.32,7.11-18.48,11.06-28.57H29.04c3.95,10.09,7.71,19.25,11.06,28.57,.59,1.61,0,4.02-.82,5.7Z"/>
        <path class="cls-1" d="M.48,233.39v23.25H39.57v-23.25H.48Z"/>
        <path class="cls-1" d="M39.73,228.78v-32.94H.58v32.94H39.73Z"/>
      </g>
    </g>
  </g>
</svg>